<svg width="560" height="190" viewBox="0 0 560 190" fill="none" xmlns="http://www.w3.org/2000/svg">
<defs><linearGradient id="sky" x1="0" y1="0" x2="560" y2="190" gradientUnits="userSpaceOnUse"><stop stop-color="#EFF7FF"/><stop offset=".55" stop-color="#EAF4FF"/><stop offset="1" stop-color="#D9ECFF"/></linearGradient><linearGradient id="water" x1="280" y1="130" x2="280" y2="190" gradientUnits="userSpaceOnUse"><stop stop-color="#CDE6FF" stop-opacity=".85"/><stop offset="1" stop-color="#AFCFF4" stop-opacity=".45"/></linearGradient></defs>
<rect width="560" height="190" rx="20" fill="url(#sky)"/><rect y="132" width="560" height="58" fill="url(#water)"/>
<g opacity=".72"><rect x="242" y="76" width="27" height="56" rx="2" fill="#9BB7D3"/><rect x="275" y="50" width="32" height="82" rx="2" fill="#7FA2C4"/><rect x="313" y="67" width="24" height="65" rx="2" fill="#A5BED6"/><rect x="343" y="37" width="38" height="95" rx="2" fill="#6F93B7"/><rect x="387" y="61" width="27" height="71" rx="2" fill="#90ADC9"/><rect x="420" y="47" width="34" height="85" rx="2" fill="#779BBB"/><rect x="461" y="71" width="24" height="61" rx="2" fill="#A7BED4"/></g>
<path d="M0 132H560" stroke="#B8D3EE"/>
<g opacity=".22"><rect x="242" y="142" width="27" height="31" fill="#7FA2C4"/><rect x="275" y="142" width="32" height="40" fill="#6F93B7"/><rect x="313" y="142" width="24" height="28" fill="#90ADC9"/><rect x="343" y="142" width="38" height="44" fill="#6F93B7"/><rect x="387" y="142" width="27" height="35" fill="#90ADC9"/><rect x="420" y="142" width="34" height="41" fill="#779BBB"/></g>
<g transform="translate(456 52)"><rect width="4" height="83" fill="#7D8EA3"/><path d="M4 4H59V39H4Z" fill="#DA251D"/><path d="M31.5 10L35.2 21.4H47.2L37.5 28.4L41.2 39.8L31.5 32.8L21.8 39.8L25.5 28.4L15.8 21.4H27.8L31.5 10Z" fill="#FFFF00"/></g>
</svg>