<svg width="420" height="260" viewBox="0 0 420 260" fill="none" xmlns="http://www.w3.org/2000/svg">
<defs>
<linearGradient id="s" x1="120" y1="32" x2="270" y2="220" gradientUnits="userSpaceOnUse"><stop stop-color="#77E9FF"/><stop offset=".48" stop-color="#3B82F6"/><stop offset="1" stop-color="#1D4ED8"/></linearGradient>
<linearGradient id="si" x1="150" y1="50" x2="235" y2="195" gradientUnits="userSpaceOnUse"><stop stop-color="#EAFBFF" stop-opacity=".72"/><stop offset="1" stop-color="#60A5FA" stop-opacity=".08"/></linearGradient>
<linearGradient id="c" x1="260" y1="105" x2="380" y2="220" gradientUnits="userSpaceOnUse"><stop stop-color="#FFF"/><stop offset="1" stop-color="#EAF2FF"/></linearGradient>
<radialGradient id="g"><stop stop-color="#38BDF8" stop-opacity=".48"/><stop offset="1" stop-color="#2563EB" stop-opacity="0"/></radialGradient>
<filter id="b" x="32" y="-14" width="350" height="300"><feGaussianBlur stdDeviation="26"/></filter>
<filter id="sh" x="68" y="8" width="270" height="250"><feDropShadow dx="0" dy="16" stdDeviation="14" flood-color="#031A4F" flood-opacity=".46"/></filter>
<filter id="cs" x="220" y="78" width="200" height="182"><feDropShadow dx="0" dy="14" stdDeviation="12" flood-color="#031A4F" flood-opacity=".40"/></filter>
</defs>
<ellipse cx="205" cy="224" rx="140" ry="22" fill="#38BDF8" fill-opacity=".14"/>
<ellipse cx="205" cy="222" rx="108" ry="14" stroke="#67E8F9" stroke-opacity=".46" stroke-width="2"/>
<ellipse cx="205" cy="222" rx="80" ry="8" stroke="#93C5FD" stroke-opacity=".32" stroke-width="2"/>
<g filter="url(#b)"><ellipse cx="205" cy="132" rx="122" ry="98" fill="url(#g)"/></g>
<g filter="url(#sh)">
<path d="M198 28C227 49 255 54 281 58V129C281 173 250 205 198 224C146 205 115 173 115 129V58C141 54 169 49 198 28Z" fill="url(#s)"/>
<path d="M198 45C221 61 243 66 264 70V127C264 160 241 186 198 203C155 186 132 160 132 127V70C153 66 175 61 198 45Z" fill="url(#si)" stroke="white" stroke-opacity=".34" stroke-width="2"/>
<path d="M164 126L189 151L235 101" stroke="white" stroke-width="17" stroke-linecap="round" stroke-linejoin="round"/>
</g>
<g filter="url(#cs)" transform="rotate(7 318 166)">
<rect x="247" y="103" width="132" height="108" rx="18" fill="url(#c)" stroke="white" stroke-opacity=".9" stroke-width="2"/>
<rect x="265" y="121" width="38" height="38" rx="10" fill="#DCEBFF"/>
<circle cx="284" cy="135" r="7" fill="#60A5FA"/><path d="M273 153C275 145 293 145 295 153" stroke="#60A5FA" stroke-width="4" stroke-linecap="round"/>
<rect x="316" y="124" width="43" height="7" rx="3.5" fill="#8DB9F7"/><rect x="316" y="138" width="31" height="6" rx="3" fill="#CBDCF5"/>
<rect x="265" y="173" width="94" height="7" rx="3.5" fill="#CBDCF5"/><rect x="265" y="187" width="68" height="7" rx="3.5" fill="#DCE7F5"/>
</g>
<circle cx="105" cy="58" r="18" fill="#0B2B68" stroke="white" stroke-width="4"/><path d="M96 58L102 64L114 50" stroke="white" stroke-width="4" stroke-linecap="round" stroke-linejoin="round"/>
</svg>